:version 1.10
:name ASF
:units
  mass 1
  length 1
  angle deg
:documentation
  ASF file generated by Kaydara
:root
  axis xyz
  order  tx ty tz rx ry rz
  position 0 0 0
  orientation 0 0 0
:bonedata
  begin
    id 1
    name RightUpLegDummy
    direction -0.718183 -0.695806 0.00816078
    length 4.904
    axis 0 0 0 xyz
  end
  begin
    id 2
    name RightUpLeg
    direction -0.0736652 -0.994202 0.0783343
    length 17.4976
    axis -2.72909 -3.00389 -4.00133 xyz
    dof rx ry rz
  end
  begin
    id 3
    name RightLeg
    direction -0.0389037 -0.994596 -0.0962598
    length 16.5821
    axis 3.95836 -18.5909 -4.46993 xyz
    dof rx ry rz
  end
  begin
    id 4
    name RightFoot
    direction -0.311643 -0.412678 0.855906
    length 3.77069
    axis -1.99483 -18.8351 -3.27644 xyz
    dof rx ry rz
  end
  begin
    id 5
    name RightToes
    direction -0.317852 0.0389852 0.947339
    length 3.85082
    axis -2.00228 -18.1713 -3.25211 xyz
    dof rx ry rz
  end
  begin
    id 6
    name SpineDummy
    direction 8.3039e-015 1 4.44677e-016
    length 4.6813
    axis 0 0 0 xyz
  end
  begin
    id 7
    name Spine
    direction -0.000262373 0.999988 0.00493267
    length 10.1015
    axis -0.00246081 0.00062579 0.0150362 xyz
    dof rx ry rz
  end
  begin
    id 8
    name Spine1
    direction 0 0 0
    length 0
    axis -0.00349562 0.000650293 0.0196666 xyz
    dof rx ry rz
  end
  begin
    id 9
    name HEadDummy
    direction -0.000343232 0.999999 0.00123745
    length 3.43865
    axis -0.00349562 0.000650293 0.0196666 xyz
  end
  begin
    id 10
    name HEad
    direction -0.0461221 0.980933 0.188796
    length 5.12695
    axis -0.00351404 -7.04812 0.0199272 xyz
    dof rx ry rz
  end
  begin
    id 11
    name LeftShoulder1Dummy
    direction 0.998904 -0.0399089 -0.0244534
    length 3.5433
    axis -0.00349562 0.000650293 0.0196666 xyz
  end
  begin
    id 12
    name LeftShoulder1
    direction 0.99951 1.64443e-005 0.0312999
    length 4.05031
    axis -0.00349562 0.000650293 0.0196666 xyz
    dof rx ry rz
  end
  begin
    id 13
    name LeftArm
    direction 0.984791 0.0515299 0.165927
    length 12.9126
    axis -64.823 -10.7743 5.20463 xyz
    dof rx ry rz
  end
  begin
    id 14
    name LeftForeArm
    direction 0.984968 0.0534808 0.16425
    length 10.8596
    axis -30.0462 -7.70601 1.87451 xyz
    dof rx ry rz
  end
  begin
    id 15
    name LeftHand
    direction 0.975871 0.0289682 0.216418
    length 6.62295
    axis -20.1348 -6.98077 1.86072 xyz
    dof rx ry rz
  end
  begin
    id 16
    name RightShoulderDummy
    direction -0.998877 -0.0405946 -0.0244307
    length 3.5433
    axis -0.00349562 0.000650293 0.0196666 xyz
  end
  begin
    id 17
    name RightShoulder
    direction -0.998933 -0.0249743 -0.0388558
    length 4.05031
    axis -0.0205316 -4.02113 1.41395 xyz
    dof rx ry rz
  end
  begin
    id 18
    name RightArm
    direction -0.997559 0.068664 0.0127103
    length 12.9638
    axis -67.3882 1.84188 -6.15987 xyz
    dof rx ry rz
  end
  begin
    id 19
    name RightForeArm
    direction -0.991508 0.0912848 0.0926241
    length 10.8312
    axis -22.1975 3.41087 -4.28711 xyz
    dof rx ry rz
  end
  begin
    id 20
    name RightHand
    direction -0.989262 0.0600788 0.133232
    length 6.57864
    axis -12.2911 2.17515 -4.39675 xyz
    dof rx ry rz
  end
  begin
    id 21
    name LeftUpLegDummy
    direction 0.718183 -0.695806 0.00816078
    length 4.904
    axis 0 0 0 xyz
  end
  begin
    id 22
    name LeftUpLeg
    direction 0.0831398 -0.99469 0.0606531
    length 17.4976
    axis -1.71016 2.29552 4.63832 xyz
    dof rx ry rz
  end
  begin
    id 23
    name LeftLeg
    direction 0.0498442 -0.991778 -0.117862
    length 16.5821
    axis 5.13757 15.5727 5.13348 xyz
    dof rx ry rz
  end
  begin
    id 24
    name LeftFoot
    direction 0.269026 -0.433896 0.85986
    length 3.77069
    axis -0.576502 15.6961 4.10267 xyz
    dof rx ry rz
  end
  begin
    id 25
    name LeftToes
    direction 0.277311 0.0251143 0.960452
    length 3.85048
    axis -0.576502 15.6961 4.10267 xyz
    dof rx ry rz
  end
:hierarchy
  begin
    root RightUpLegDummy SpineDummy LeftUpLegDummy
    RightUpLegDummy RightUpLeg
    RightUpLeg RightLeg
    RightLeg RightFoot
    RightFoot RightToes
    SpineDummy Spine
    Spine Spine1
    Spine1 HEadDummy LeftShoulder1Dummy RightShoulderDummy
    HEadDummy HEad
    LeftShoulder1Dummy LeftShoulder1
    LeftShoulder1 LeftArm
    LeftArm LeftForeArm
    LeftForeArm LeftHand
    RightShoulderDummy RightShoulder
    RightShoulder RightArm
    RightArm RightForeArm
    RightForeArm RightHand
    LeftUpLegDummy LeftUpLeg
    LeftUpLeg LeftLeg
    LeftLeg LeftFoot
    LeftFoot LeftToes
  end

:SAMPLES-PER-SECOND 30
:FULLY-SPECIFIED
:DEGREES
92
root  -3.8424 25.6626 73.2131 -169.67 20.8692 178.038
RightUpLeg  -47.8602 -1.18528 -8.54342
RightLeg  106.66 17.531 -5.42974
RightFoot  -46.6667 6.15477 19.7531
RightToes  -1.16415e-010 -3.18055e-015 -2.98177e-016
Spine  34.8576 -1.2938 10.745
Spine1  0.78976 3.30278 -16.5487
HEad  -22.7191 1.06236 -5.50059
LeftShoulder1  -3.88251e-019 9.70628e-020 -3.87848e-018
LeftArm  -27.6744 59.1063 -52.7972
LeftForeArm  -20.8181 -15.5592 4.80881
LeftHand  -5.20288 -6.75343 48.6367
RightShoulder  3.32468 7.75492 16.8615
RightArm  0.363321 -14.8005 39.1204
RightForeArm  -0.28759 42.4984 -24.8801
RightHand  -3.71703 4.25026 -42.3935
LeftUpLeg  -84.1723 7.90047 -8.07324
LeftLeg  87.0145 -13.979 20.3095
LeftFoot  -15.9051 -0.0658181 -0.9704
LeftToes  1.69338e-011 3.79281e-011 -2.20049e-011
93
root  -3.82747 25.3061 72.7007 -169.252 19.7995 177.822
RightUpLeg  -47.072 -1.40864 -9.35356
RightLeg  108.079 17.5646 -5.16376
RightFoot  -47.0986 6.71996 21.2909
RightToes  -1.16415e-010 -3.18055e-015 -2.98177e-016
Spine  34.9698 -1.18608 10.4796
Spine1  0.76546 3.39413 -17.4127
HEad  -23.2729 0.488336 -5.36484
LeftShoulder1  -3.88251e-019 9.70628e-020 -3.87848e-018
LeftArm  -27.8555 58.4068 -52.9784
LeftForeArm  -22.4796 -14.7067 4.8222
LeftHand  -5.08086 -6.73684 47.6796
RightShoulder  3.37934 7.84483 17.0665
RightArm  0.971168 -14.5361 38.9452
RightForeArm  -0.178232 41.0127 -23.6428
RightHand  -3.61299 4.1108 -41.8595
LeftUpLeg  -85.0684 7.02696 -8.83577
LeftLeg  88.9422 -14.6717 20.5733
LeftFoot  -17.4978 -0.0590671 -0.315127
LeftToes  1.69338e-011 3.79281e-011 -2.20049e-011
94
root  -3.79584 25.0593 72.2481 -168.748 18.6336 177.396
RightUpLeg  -46.4527 -1.62386 -10.1719
RightLeg  109.09 17.6536 -5.16169
RightFoot  -47.0676 7.16088 22.7106
RightToes  -1.16415e-010 -3.18055e-015 -2.98177e-016
Spine  35.2301 -0.969761 9.78063
Spine1  0.693339 3.42816 -17.8201
HEad  -23.8424 -0.0191775 -5.42895
LeftShoulder1  -3.88251e-019 9.70628e-020 -3.87848e-018
LeftArm  -28.579 57.6973 -53.3172
LeftForeArm  -23.7184 -15.4474 5.09443
LeftHand  -4.81108 -6.39419 46.6489
RightShoulder  3.43691 7.90984 17.331
RightArm  1.26131 -14.7988 38.677
RightForeArm  0.54549 39.7585 -22.6856
RightHand  -3.40532 3.77153 -40.9709
LeftUpLeg  -85.8329 6.45677 -10.0222
LeftLeg  90.4023 -15.1725 20.4852
LeftFoot  -19.5088 -0.0492517 0.0700437
LeftToes  1.69338e-011 3.79281e-011 -2.20049e-011
95
root  -3.76022 24.922 71.8175 -168.148 17.236 176.987
RightUpLeg  -45.686 -1.9907 -10.8473
RightLeg  109.672 17.6135 -4.93237
RightFoot  -47.0331 7.58983 24.0894
RightToes  -1.16415e-010 -3.18055e-015 -2.98177e-016
Spine  35.4162 -0.820214 9.0808
Spine1  0.760868 3.36292 -17.9459
HEad  -24.4007 -0.494208 -5.46228
LeftShoulder1  -3.88251e-019 9.70628e-020 -3.87848e-018
LeftArm  -29.8023 56.7186 -53.655
LeftForeArm  -23.3919 -17.0409 5.48701
LeftHand  -4.70634 -6.16253 46.5863
RightShoulder  3.52008 8.00841 17.7006
RightArm  1.51414 -15.3857 38.2316
RightForeArm  1.14489 38.5412 -21.7929
RightHand  -2.96226 2.93189 -39.3262
LeftUpLeg  -86.3937 5.86675 -11.1755
LeftLeg  91.413 -15.4268 19.799
LeftFoot  -20.7544 -0.0301589 0.38618
LeftToes  1.69338e-011 3.79281e-011 -2.20049e-011
96
root  -3.72976 24.8629 71.3616 -167.289 15.7042 176.796
RightUpLeg  -44.703 -2.41629 -11.2574
RightLeg  109.793 17.3614 -4.28167
RightFoot  -47.2115 8.11506 25.6041
RightToes  -1.16415e-010 -3.18055e-015 -2.98177e-016
Spine  35.257 -0.798544 8.77794
Spine1  0.923066 3.27547 -18.2322
HEad  -24.7759 -1.05802 -5.17536
LeftShoulder1  -3.88251e-019 9.70628e-020 -3.87848e-018
LeftArm  -31.5413 55.3992 -53.728
LeftForeArm  -20.5922 -19.0744 5.85864
LeftHand  -4.92489 -6.57266 46.9716
RightShoulder  3.64942 8.1808 18.2323
RightArm  2.28229 -16.2753 37.4369
RightForeArm  1.12726 37.1392 -20.7744
RightHand  -2.54809 2.11529 -37.6421
LeftUpLeg  -86.7557 5.07955 -11.9839
LeftLeg  92.1812 -15.5736 19.0806
LeftFoot  -21.7422 0.0236323 1.08104
LeftToes  1.69338e-011 3.79281e-011 -2.20049e-011
97
root  -3.70863 24.8997 70.8748 -166.207 14.4113 176.712
RightUpLeg  -43.8298 -2.80737 -11.4366
RightLeg  109.286 17.2131 -4.00315
RightFoot  -46.9919 8.46206 26.8664
RightToes  -1.16415e-010 -3.18055e-015 -2.98177e-016
Spine  34.8403 -0.772443 8.61305
Spine1  1.01 3.25739 -18.7789
HEad  -24.7574 -1.60481 -4.70191
LeftShoulder1  -3.88251e-019 9.70628e-020 -3.87848e-018
LeftArm  -33.8891 53.9938 -53.3231
LeftForeArm  -15.7041 -21.7136 6.02259
LeftHand  -5.17761 -7.28263 46.5657
RightShoulder  3.80201 8.38319 18.8467
RightArm  3.44118 -17.5088 36.5915
RightForeArm  1.32562 35.251 -19.4847
RightHand  -2.55603 2.18649 -37.3923
LeftUpLeg  -86.8706 4.36264 -12.6024
LeftLeg  92.6654 -15.6611 18.6544
LeftFoot  -23.3045 0.0904271 1.71958
LeftToes  1.69338e-011 3.79281e-011 -2.20049e-011
98
root  -3.69476 25.0665 70.3683 -165.187 13.4454 176.642
RightUpLeg  -43.0237 -3.24738 -11.437
RightLeg  108.113 17.2766 -4.38784
RightFoot  -46.2246 8.42163 27.3806
RightToes  -1.16415e-010 -3.18055e-015 -2.98177e-016
Spine  34.477 -0.640273 8.22335
Spine1  0.996582 3.28274 -19.2061
HEad  -24.4713 -1.93657 -4.34127
LeftShoulder1  -3.88251e-019 9.70628e-020 -3.87848e-018
LeftArm  -36.5512 52.6286 -52.4082
LeftForeArm  -10.0083 -25.0278 5.86701
LeftHand  -5.16908 -7.57421 45.5255
RightShoulder  3.9214 8.53907 19.3204
RightArm  4.23064 -19.181 36.1071
RightForeArm  2.30889 32.8757 -18
RightHand  -2.86351 2.82174 -38.5974
LeftUpLeg  -86.6078 3.92668 -13.2073
LeftLeg  92.7496 -15.6234 18.2584
LeftFoot  -24.7939 0.133827 1.96216
LeftToes  1.69338e-011 3.79281e-011 -2.20049e-011
99
root  -3.67803 25.3377 69.8432 -164.365 12.5239 176.717
RightUpLeg  -41.8833 -3.72555 -11.2025
RightLeg  106.511 17.225 -4.5727
RightFoot  -45.5148 8.3433 27.7458
RightToes  -1.16415e-010 -3.18055e-015 -2.98177e-016
Spine  34.3046 -0.440945 7.65711
Spine1  0.893399 3.28318 -19.2672
HEad  -24.2942 -2.07332 -4.06299
LeftShoulder1  -3.88251e-019 9.70628e-020 -3.87848e-018
LeftArm  -38.1042 51.2423 -51.1182
LeftForeArm  -5.33526 -28.7845 5.94897
LeftHand  -5.10201 -7.53341 45.1304
RightShoulder  4.00159 8.63795 19.6432
RightArm  4.47304 -21.3578 35.7772
RightForeArm  3.13838 30.5529 -16.6347
RightHand  -2.96095 2.87047 -39.6052
LeftUpLeg  -85.9061 3.58753 -13.5815
LeftLeg  92.5304 -15.4804 17.7805
LeftFoot  -25.6211 0.163727 2.1217
LeftToes  1.69338e-011 3.79281e-011 -2.20049e-011
